<svg width="16" height="16" viewBox="0 0 16 16" fill="none" xmlns="http://www.w3.org/2000/svg">
<path d="M12.2135 3.94677L12.2135 3.94672C12.2578 3.90248 12.2578 3.83078 12.2135 3.78653L12.2134 3.78645C12.1692 3.74224 12.0975 3.74224 12.0533 3.78645L12.0533 3.78649L8.35358 7.48614L8.00002 7.83969L7.64647 7.48614L3.94684 3.7865C3.94684 3.78649 3.94684 3.78649 3.94683 3.78649C3.90256 3.74222 3.8308 3.74224 3.78655 3.78649C3.74229 3.83075 3.74229 3.90251 3.78655 3.94676L7.4862 7.64641L7.83975 7.99997L7.4862 8.35352L3.78659 12.0531C3.78658 12.0531 3.78656 12.0531 3.78655 12.0532C3.7423 12.0975 3.74229 12.1691 3.78651 12.2134C3.78654 12.2134 3.78656 12.2135 3.78659 12.2135M12.2135 3.94677L4.30039 12.567C4.06086 12.8065 3.67252 12.8065 3.433 12.567L3.78659 12.2135M12.2135 3.94677L8.51385 7.64641L8.1603 7.99997L8.51385 8.35352L12.2135 12.0532C12.2578 12.0975 12.2578 12.1692 12.2135 12.2135C12.1693 12.2577 12.0975 12.2577 12.0533 12.2135L8.35358 8.51379L8.00002 8.16024L7.64647 8.51379L3.94688 12.2134M12.2135 3.94677L3.94688 12.2134M3.78659 12.2135C3.83084 12.2577 3.90257 12.2577 3.94683 12.2135C3.94685 12.2134 3.94687 12.2134 3.94688 12.2134M3.78659 12.2135L3.94688 12.2134" fill="#09090B" stroke="#ffffff"/>
</svg>
