<svg width="234" height="238" viewBox="0 0 234 238" fill="none" xmlns="http://www.w3.org/2000/svg">
<path fill-rule="evenodd" clip-rule="evenodd" d="M171.3 139.6C166.3 132.9 163 126.9 161 122.5H181.6C179.6 126.9 176.4 132.8 171.3 139.6ZM199.2 107.1H179.1V99.9C179.1 95.7 175.7 92.2 171.4 92.2C167.2 92.2 163.7 95.6 163.7 99.9V107.1H143.6C139.4 107.1 135.9 110.5 135.9 114.8C135.9 119 139.3 122.5 143.6 122.5H144.6C146.6 128.2 151.2 139 161.2 151.5C157 155.7 152.1 160 146.3 164.2C142.9 166.7 142.1 171.5 144.6 175C146.1 177.1 148.4 178.1 150.8 178.1C152.4 178.1 154 177.6 155.3 176.6C161.5 172.1 166.8 167.4 171.4 162.9C176 167.5 181.3 172.1 187.5 176.6C188.9 177.6 190.5 178.1 192 178.1C194.4 178.1 196.7 177 198.2 175C200.7 171.6 200 166.8 196.5 164.2C190.7 160 185.8 155.7 181.6 151.5C191.5 139 196.2 128.1 198.2 122.5H199.2C203.4 122.5 206.9 119.1 206.9 114.8C206.9 110.5 203.4 107.1 199.2 107.1ZM218.1 209.1C218.1 216.4 212.2 222.3 204.9 222.3H110.8C109.9 222.3 109 222 108.1 221.8L133.2 188.3C133.6 187.8 133.7 187.2 134 186.7C134.2 186.4 134.4 186.1 134.5 185.7C134.8 184.7 134.9 183.6 134.7 182.6L115.7 53.5H204.8C212.1 53.5 218 59.4 218 66.7V209.1H218.1ZM111.6 191.4L97.5 210.2L95.4 191.4H111.6ZM15.4 162.8V28.7C15.4 21.4 21.3 15.5 28.6 15.5H83.2C89.7 15.5 95.3999 20.4 96.2999 26.8L118.1 176.1H28.6C21.3 176 15.4 170.1 15.4 162.8ZM204.9 38.1H113.5L111.5 24.5C109.5 10.6 97.3 0 83.2 0H28.6C12.8 0 0 12.8 0 28.6V162.7C0 178.5 12.8 191.3 28.6 191.3H80L82.2999 212.2C83.8999 226.7 96.1 237.6 110.7 237.6H204.8C220.6 237.6 233.4 224.8 233.4 209V66.7C233.5 51 220.6 38.1 204.9 38.1ZM52.2999 101.4L57.7999 72.9C58.2999 70.6 62.2 70.6 62.6 72.9L68.1 101.4H52.2999ZM60.2 55.5C51.7 55.5 44.3 61.6 42.7 70L31 130.8C30.2 135 32.9 139 37.1 139.8C41.2 140.6 45.3 137.9 46.1 133.7L49.4 116.8H71.2L74.5 133.7C75.2 137.4 78.4 139.9 82 139.9C82.5 139.9 83 139.9 83.5 139.8C87.7 139 90.4 134.9 89.6 130.8L77.9 70C76.1 61.6 68.7 55.5 60.2 55.5Z" fill="#010202"/>
</svg>
